{
  "accessors": [
    {
      "bufferView": 1,
      "componentType": 5126,
      "count": 26461,
      "max": [
        1.0019720792770386,
        1.0521190166473389,
        -1.1503326892852783
      ],
      "min": [
        -0.9006720185279846,
        -0.7212819457054138,
        -1.9834754467010498
      ],
      "type": "VEC3"
    },
    {
      "bufferView": 1,
      "byteOffset": 317532,
      "componentType": 5126,
      "count": 26461,
      "max": [
        0.9998072981834412,
        0.9998270273208618,
        0.998848557472229
      ],
      "min": [
        -0.9999854564666748,
        -0.9994746446609497,
        -0.9999995827674866
      ],
      "type": "VEC3"
    },
    {
      "bufferView": 2,
      "componentType": 5126,
      "count": 26461,
      "max": [
        0.8666666746139526,
        0.9882352948188782,
        0.9647058844566345,
        1.0
      ],
      "min": [
        0.4313725531101227,
        0.7607843279838562,
        0.8274509906768799,
        1.0
      ],
      "type": "VEC4"
    },
    {
      "bufferView": 0,
      "componentType": 5125,
      "count": 158754,
      "type": "SCALAR"
    },
    {
      "bufferView": 1,
      "byteOffset": 635064,
      "componentType": 5126,
      "count": 3880,
      "max": [
        0.5811769366264343,
        0.35226595401763916,
        -1.029639720916748
      ],
      "min": [
        0.24413758516311646,
        -0.043666258454322815,
        -1.2638953924179077
      ],
      "type": "VEC3"
    },
    {
      "bufferView": 1,
      "byteOffset": 681624,
      "componentType": 5126,
      "count": 3880,
      "max": [
        0.9968674182891846,
        0.9994586110115051,
        0.9999786019325256
      ],
      "min": [
        -0.9999399781227112,
        -0.9992641806602478,
        -0.9995894432067871
      ],
      "type": "VEC3"
    },
    {
      "bufferView": 2,
      "byteOffset": 423376,
      "componentType": 5126,
      "count": 3880,
      "max": [
        0.8588235378265381,
        0.772549033164978,
        0.6627451181411743,
        1.0
      ],
      "min": [
        0.8588235378265381,
        0.772549033164978,
        0.6627451181411743,
        1.0
      ],
      "type": "VEC4"
    },
    {
      "bufferView": 0,
      "byteOffset": 635016,
      "componentType": 5125,
      "count": 23268,
      "type": "SCALAR"
    },
    {
      "bufferView": 1,
      "byteOffset": 728184,
      "componentType": 5126,
      "count": 4037,
      "max": [
        -0.16792446374893188,
        0.2103429138660431,
        -1.1612054109573364
      ],
      "min": [
        -0.48576444387435913,
        -0.22744816541671753,
        -1.3501900434494019
      ],
      "type": "VEC3"
    },
    {
      "bufferView": 1,
      "byteOffset": 776628,
      "componentType": 5126,
      "count": 4037,
      "max": [
        0.9999934434890747,
        0.9983693361282349,
        0.9997755885124207
      ],
      "min": [
        -0.9989306926727295,
        -0.9997220635414124,
        -0.9998592734336853
      ],
      "type": "VEC3"
    },
    {
      "bufferView": 2,
      "byteOffset": 485456,
      "componentType": 5126,
      "count": 4037,
      "max": [
        0.8588235378265381,
        0.772549033164978,
        0.6627451181411743,
        1.0
      ],
      "min": [
        0.8588235378265381,
        0.772549033164978,
        0.6627451181411743,
        1.0
      ],
      "type": "VEC4"
    },
    {
      "bufferView": 0,
      "byteOffset": 728088,
      "componentType": 5125,
      "count": 24210,
      "type": "SCALAR"
    },
    {
      "bufferView": 1,
      "byteOffset": 825072,
      "componentType": 5126,
      "count": 37358,
      "max": [
        0.5945689678192139,
        0.53914874792099,
        -0.30831700563430786
      ],
      "min": [
        -0.5968363881111145,
        -0.5731474161148071,
        -1.2908762693405151
      ],
      "type": "VEC3"
    },
    {
      "bufferView": 1,
      "byteOffset": 1273368,
      "componentType": 5126,
      "count": 37358,
      "max": [
        0.9999545216560364,
        0.9998711943626404,
        0.999984622001648
      ],
      "min": [
        -0.9999934434890747,
        -0.9999834299087524,
        -0.9999959468841553
      ],
      "type": "VEC3"
    },
    {
      "bufferView": 2,
      "byteOffset": 550048,
      "componentType": 5126,
      "count": 37358,
      "max": [
        0.8666666746139526,
        0.8627451062202454,
        0.8470588326454163,
        1.0
      ],
      "min": [
        0.6705882549285889,
        0.7098039388656616,
        0.686274528503418,
        1.0
      ],
      "type": "VEC4"
    },
    {
      "bufferView": 0,
      "byteOffset": 824928,
      "componentType": 5125,
      "count": 223338,
      "type": "SCALAR"
    },
    {
      "bufferView": 1,
      "byteOffset": 1721664,
      "componentType": 5126,
      "count": 3181,
      "max": [
        0.658924400806427,
        0.05011199042201042,
        -0.3770950436592102
      ],
      "min": [
        -0.8163173198699951,
        -0.4027947783470154,
        -0.9010366797447205
      ],
      "type": "VEC3"
    },
    {
      "bufferView": 1,
      "byteOffset": 1759836,
      "componentType": 5126,
      "count": 3181,
      "max": [
        0.9984305500984192,
        0.920282781124115,
        0.9995566606521606
      ],
      "min": [
        -0.9995579123497009,
        -0.9992662072181702,
        -0.9365827441215515
      ],
      "type": "VEC3"
    },
    {
      "bufferView": 2,
      "byteOffset": 1147776,
      "componentType": 5126,
      "count": 3181,
      "max": [
        0.8666666746139526,
        0.8627451062202454,
        0.8470588326454163,
        1.0
      ],
      "min": [
        0.7137255072593689,
        0.7450980544090271,
        0.7215686440467834,
        1.0
      ],
      "type": "VEC4"
    },
    {
      "bufferView": 0,
      "byteOffset": 1718280,
      "componentType": 5125,
      "count": 18264,
      "type": "SCALAR"
    },
    {
      "bufferView": 1,
      "byteOffset": 1798008,
      "componentType": 5126,
      "count": 5498,
      "max": [
        0.3899679183959961,
        -0.46842965483665466,
        0.0824752077460289
      ],
      "min": [
        -0.7429854273796082,
        -0.7189334630966187,
        -0.44688695669174194
      ],
      "type": "VEC3"
    },
    {
      "bufferView": 1,
      "byteOffset": 1863984,
      "componentType": 5126,
      "count": 5498,
      "max": [
        0.999902606010437,
        0.9999336004257202,
        0.9998105764389038
      ],
      "min": [
        -0.9996711611747742,
        -0.9999430179595947,
        -0.9996046423912048
      ],
      "type": "VEC3"
    },
    {
      "bufferView": 2,
      "byteOffset": 1198672,
      "componentType": 5126,
      "count": 5498,
      "max": [
        0.08627451211214066,
        0.07450980693101883,
        0.07450980693101883,
        1.0
      ],
      "min": [
        0.08627451211214066,
        0.07450980693101883,
        0.07450980693101883,
        1.0
      ],
      "type": "VEC4"
    },
    {
      "bufferView": 0,
      "byteOffset": 1791336,
      "componentType": 5125,
      "count": 32964,
      "type": "SCALAR"
    },
    {
      "bufferView": 1,
      "byteOffset": 1929960,
      "componentType": 5126,
      "count": 801,
      "max": [
        -0.03096277080476284,
        -0.7671027183532715,
        -0.15268850326538086
      ],
      "min": [
        -0.28162437677383423,
        -0.9083763957023621,
        -0.3180614113807678
      ],
      "type": "VEC3"
    },
    {
      "bufferView": 1,
      "byteOffset": 1939572,
      "componentType": 5126,
      "count": 801,
      "max": [
        0.9964020848274231,
        0.21927303075790405,
        0.9299070239067078
      ],
      "min": [
        -0.9923967719078064,
        -0.9983446002006531,
        -0.9995861053466797
      ],
      "type": "VEC3"
    },
    {
      "bufferView": 2,
      "byteOffset": 1286640,
      "componentType": 5126,
      "count": 801,
      "max": [
        0.9137254953384399,
        0.8274509906768799,
        0.6392157077789307,
        1.0
      ],
      "min": [
        0.9137254953384399,
        0.8274509906768799,
        0.6392157077789307,
        1.0
      ],
      "type": "VEC4"
    },
    {
      "bufferView": 0,
      "byteOffset": 1923192,
      "componentType": 5125,
      "count": 4608,
      "type": "SCALAR"
    },
    {
      "bufferView": 1,
      "byteOffset": 1949184,
      "componentType": 5126,
      "count": 39240,
      "max": [
        0.6289747357368469,
        0.6595304012298584,
        0.6669900417327881
      ],
      "min": [
        -1.005460262298584,
        -0.7998504042625427,
        -0.7102330327033997
      ],
      "type": "VEC3"
    },
    {
      "bufferView": 1,
      "byteOffset": 2420064,
      "componentType": 5126,
      "count": 39240,
      "max": [
        0.9999396204948425,
        0.9999620318412781,
        0.9999848008155823
      ],
      "min": [
        -0.9999683499336243,
        -0.9999935626983643,
        -0.9999599456787109
      ],
      "type": "VEC3"
    },
    {
      "bufferView": 2,
      "byteOffset": 1299456,
      "componentType": 5126,
      "count": 39240,
      "max": [
        0.9411764740943909,
        0.929411768913269,
        0.929411768913269,
        1.0
      ],
      "min": [
        0.25882354378700256,
        0.250980406999588,
        0.24313725531101227,
        1.0
      ],
      "type": "VEC4"
    },
    {
      "bufferView": 0,
      "byteOffset": 1941624,
      "componentType": 5125,
      "count": 235428,
      "type": "SCALAR"
    }
  ],
  "asset": {
    "extras": {
      "author": "ZhangWanqing (https://sketchfab.com/ZhangWanqing)",
      "license": "CC-BY-4.0 (http://creativecommons.org/licenses/by/4.0/)",
      "source": "https://sketchfab.com/3d-models/cute-penguin-2020-c1d4c884202f4e63b63d841915fbbfbc",
      "title": "cute penguin 2020"
    },
    "generator": "Sketchfab-12.66.0",
    "version": "2.0"
  },
  "bufferViews": [
    {
      "buffer": 0,
      "byteLength": 2883336,
      "name": "floatBufferViews",
      "target": 34963
    },
    {
      "buffer": 0,
      "byteLength": 2890944,
      "byteOffset": 2883336,
      "byteStride": 12,
      "name": "floatBufferViews",
      "target": 34962
    },
    {
      "buffer": 0,
      "byteLength": 1927296,
      "byteOffset": 5774280,
      "byteStride": 16,
      "name": "floatBufferViews",
      "target": 34962
    }
  ],
  "buffers": [
    {
      "byteLength": 7701576,
      "uri": "scene.bin"
    }
  ],
  "materials": [
    {
      "doubleSided": true,
      "name": "material_0",
      "pbrMetallicRoughness": {
        "metallicFactor": 0.0,
        "roughnessFactor": 0.6
      }
    },
    {
      "doubleSided": true,
      "name": "material_1",
      "pbrMetallicRoughness": {
        "metallicFactor": 0.0,
        "roughnessFactor": 0.4103724428362743
      }
    },
    {
      "doubleSided": true,
      "name": "material_2",
      "pbrMetallicRoughness": {
        "metallicFactor": 0.0,
        "roughnessFactor": 0.29424191211974887
      }
    },
    {
      "doubleSided": true,
      "name": "material_3",
      "pbrMetallicRoughness": {
        "metallicFactor": 0.0,
        "roughnessFactor": 0.6
      }
    },
    {
      "doubleSided": true,
      "name": "material_4",
      "pbrMetallicRoughness": {
        "metallicFactor": 0.0,
        "roughnessFactor": 0.6
      }
    },
    {
      "doubleSided": true,
      "name": "material_5",
      "pbrMetallicRoughness": {
        "metallicFactor": 0.0,
        "roughnessFactor": 0.6
      }
    },
    {
      "doubleSided": true,
      "name": "material_6",
      "pbrMetallicRoughness": {
        "metallicFactor": 0.0,
        "roughnessFactor": 0.5142787071615864
      }
    }
  ],
  "meshes": [
    {
      "name": "Object_0",
      "primitives": [
        {
          "attributes": {
            "COLOR_0": 2,
            "NORMAL": 1,
            "POSITION": 0
          },
          "indices": 3,
          "material": 6,
          "mode": 4
        }
      ]
    },
    {
      "name": "Object_1",
      "primitives": [
        {
          "attributes": {
            "COLOR_0": 6,
            "NORMAL": 5,
            "POSITION": 4
          },
          "indices": 7,
          "material": 5,
          "mode": 4
        }
      ]
    },
    {
      "name": "Object_2",
      "primitives": [
        {
          "attributes": {
            "COLOR_0": 10,
            "NORMAL": 9,
            "POSITION": 8
          },
          "indices": 11,
          "material": 4,
          "mode": 4
        }
      ]
    },
    {
      "name": "Object_3",
      "primitives": [
        {
          "attributes": {
            "COLOR_0": 14,
            "NORMAL": 13,
            "POSITION": 12
          },
          "indices": 15,
          "material": 3,
          "mode": 4
        }
      ]
    },
    {
      "name": "Object_4",
      "primitives": [
        {
          "attributes": {
            "COLOR_0": 18,
            "NORMAL": 17,
            "POSITION": 16
          },
          "indices": 19,
          "material": 3,
          "mode": 4
        }
      ]
    },
    {
      "name": "Object_5",
      "primitives": [
        {
          "attributes": {
            "COLOR_0": 22,
            "NORMAL": 21,
            "POSITION": 20
          },
          "indices": 23,
          "material": 2,
          "mode": 4
        }
      ]
    },
    {
      "name": "Object_6",
      "primitives": [
        {
          "attributes": {
            "COLOR_0": 26,
            "NORMAL": 25,
            "POSITION": 24
          },
          "indices": 27,
          "material": 1,
          "mode": 4
        }
      ]
    },
    {
      "name": "Object_7",
      "primitives": [
        {
          "attributes": {
            "COLOR_0": 30,
            "NORMAL": 29,
            "POSITION": 28
          },
          "indices": 31,
          "material": 0,
          "mode": 4
        }
      ]
    }
  ],
  "nodes": [
    {
      "children": [
        1
      ],
      "matrix": [
        1.0,
        0.0,
        0.0,
        0.0,
        0.0,
        2.220446049250313e-16,
        -1.0,
        0.0,
        0.0,
        1.0,
        2.220446049250313e-16,
        0.0,
        0.0,
        0.0,
        0.0,
        1.0
      ],
      "name": "Sketchfab_model"
    },
    {
      "children": [
        2,
        4,
        6,
        8,
        11,
        13,
        15
      ],
      "name": "zbrush_concat.osgb.cleaner.materialmerger.gles"
    },
    {
      "children": [
        3
      ],
      "name": "/sketchfab-data/processing/models/8bed130a315a46bc9c1567282e096ac2/c1d4c884202f4e63b63d841915fbbfbc/6f35b7057a534a0ca02d4ff3a7936307/preprocess/SubTool-6-3834158.OBJ"
    },
    {
      "mesh": 0,
      "name": "Object_3"
    },
    {
      "children": [
        5
      ],
      "name": "/sketchfab-data/processing/models/8bed130a315a46bc9c1567282e096ac2/c1d4c884202f4e63b63d841915fbbfbc/6f35b7057a534a0ca02d4ff3a7936307/preprocess/SubTool-5-9017295.OBJ"
    },
    {
      "mesh": 1,
      "name": "Object_5"
    },
    {
      "children": [
        7
      ],
      "name": "/sketchfab-data/processing/models/8bed130a315a46bc9c1567282e096ac2/c1d4c884202f4e63b63d841915fbbfbc/6f35b7057a534a0ca02d4ff3a7936307/preprocess/SubTool-4-9017295.OBJ"
    },
    {
      "mesh": 2,
      "name": "Object_7"
    },
    {
      "children": [
        9,
        10
      ],
      "name": "/sketchfab-data/processing/models/8bed130a315a46bc9c1567282e096ac2/c1d4c884202f4e63b63d841915fbbfbc/6f35b7057a534a0ca02d4ff3a7936307/preprocess/SubTool-3-9017295.OBJ"
    },
    {
      "mesh": 3,
      "name": "Object_9"
    },
    {
      "mesh": 4,
      "name": "Object_10"
    },
    {
      "children": [
        12
      ],
      "name": "/sketchfab-data/processing/models/8bed130a315a46bc9c1567282e096ac2/c1d4c884202f4e63b63d841915fbbfbc/6f35b7057a534a0ca02d4ff3a7936307/preprocess/SubTool-2-10233600.OBJ"
    },
    {
      "mesh": 5,
      "name": "Object_12"
    },
    {
      "children": [
        14
      ],
      "name": "/sketchfab-data/processing/models/8bed130a315a46bc9c1567282e096ac2/c1d4c884202f4e63b63d841915fbbfbc/6f35b7057a534a0ca02d4ff3a7936307/preprocess/SubTool-1-10233600.OBJ"
    },
    {
      "mesh": 6,
      "name": "Object_14"
    },
    {
      "children": [
        16
      ],
      "name": "/sketchfab-data/processing/models/8bed130a315a46bc9c1567282e096ac2/c1d4c884202f4e63b63d841915fbbfbc/6f35b7057a534a0ca02d4ff3a7936307/preprocess/SubTool-0-10233600.OBJ"
    },
    {
      "mesh": 7,
      "name": "Object_16"
    }
  ],
  "scene": 0,
  "scenes": [
    {
      "name": "Sketchfab_Scene",
      "nodes": [
        0
      ]
    }
  ]
}
